<?xml version="1.0" standalone="no"?>
<!DOCTYPE svg PUBLIC "-//W3C//DTD SVG 20010904//EN"
 "http://www.w3.org/TR/2001/REC-SVG-20010904/DTD/svg10.dtd">
<svg version="1.0" xmlns="http://www.w3.org/2000/svg"
 width="119.000000pt" height="147.000000pt" viewBox="0 0 119.000000 147.000000"
 preserveAspectRatio="xMidYMid meet">

<g transform="translate(0.000000,147.000000) scale(0.100000,-0.100000)"
fill="#000000" stroke="none">
<path d="M0 735 l0 -735 595 0 595 0 0 735 0 735 -595 0 -595 0 0 -735z m729
394 c28 -10 32 -15 29 -42 -4 -41 -44 -66 -85 -51 -32 11 -55 50 -46 82 6 25
48 30 102 11z m-329 -84 c-13 -25 -49 -45 -80 -45 -38 0 -29 20 27 60 48 34
59 38 61 24 2 -9 -1 -27 -8 -39z m181 45 c28 -16 52 -68 44 -99 -28 -113 -185
-93 -185 24 0 38 50 85 90 85 17 0 40 -5 51 -10z m292 -32 c22 -16 25 -23 16
-34 -6 -8 -24 -14 -40 -14 -34 0 -64 38 -54 70 7 22 20 18 78 -22z m-99 -62
c71 -30 89 -110 37 -168 -79 -89 -219 10 -168 118 11 21 30 41 50 49 40 18 41
18 81 1z m185 -31 c40 -56 69 -120 80 -181 l9 -46 -41 5 c-53 7 -87 33 -115
88 -17 32 -22 55 -19 86 4 42 30 93 46 93 4 0 22 -20 40 -45z m-534 -20 c30
-30 31 -54 4 -89 -40 -50 -119 -24 -119 40 0 68 68 97 115 49z m-152 -35 c32
-53 -1 -110 -64 -110 l-38 0 14 39 c21 61 44 101 58 101 7 0 21 -14 30 -30z
m327 -25 c15 -18 10 -45 -13 -59 -26 -16 -62 27 -47 55 13 23 43 25 60 4z
m-56 -80 c34 -31 35 -83 3 -120 -51 -60 -147 -20 -147 61 0 75 88 111 144 59z
m-176 -22 c-2 -10 -10 -18 -18 -18 -8 0 -16 8 -18 18 -2 12 3 17 18 17 15 0
20 -5 18 -17z m336 -14 c32 -25 36 -77 7 -103 -28 -25 -79 -17 -104 16 -17 23
-18 31 -8 56 12 27 41 50 67 51 6 1 23 -8 38 -20z m-418 -14 c15 -23 15 -27 0
-51 -23 -33 -64 -30 -85 8 -14 24 -14 28 3 47 26 29 62 27 82 -4z m560 -11 c8
-30 -2 -44 -30 -44 -41 0 -59 36 -31 63 20 20 54 10 61 -19z m146 -38 c21 -13
48 -65 48 -93 0 -60 -72 -109 -135 -92 -121 33 -83 226 40 202 16 -3 37 -11
47 -17z m-618 -5 c33 -36 -18 -83 -52 -49 -23 23 -7 68 23 68 7 0 20 -9 29
-19z m-74 -71 c29 -29 26 -74 -6 -99 -33 -26 -55 -26 -82 -3 -32 26 -37 63
-12 95 26 33 71 36 100 7z m495 0 c16 -18 17 -23 5 -46 -11 -19 -20 -24 -43
-22 -39 4 -55 28 -39 62 14 32 51 35 77 6z m-151 -14 c93 -39 109 -166 31
-235 -29 -25 -44 -31 -83 -31 -85 0 -143 57 -144 140 -1 101 100 166 196 126z
m-226 -8 c17 -17 15 -53 -3 -68 -20 -17 -62 -5 -70 21 -13 40 44 76 73 47z
m456 -109 c55 -43 23 -129 -49 -129 -69 0 -100 76 -50 125 30 30 64 32 99 4z
m-500 -3 c44 -18 61 -64 42 -111 -26 -61 -46 -61 -110 1 -55 52 -57 56 -43 77
13 21 52 47 70 47 4 0 23 -6 41 -14z m396 -145 c21 -41 -21 -81 -58 -55 -38
26 -22 74 25 74 12 0 27 -9 33 -19z m-280 -6 c20 -24 8 -50 -24 -50 -36 0 -56
26 -37 49 17 20 45 21 61 1z m154 -41 c31 -30 20 -44 -36 -44 -71 0 -89 12
-64 39 23 25 78 28 100 5z"/>
</g>
</svg>
